#N canvas 5 0 1275 730 12;
#X declare -path lib/quacktrip~ -path lib;
#X obj 523 25 declare -path lib/quacktrip~ -path lib;
#N canvas 140 104 1034 258 more-setctl 0;
#X msg 25 54 set \$1;
#X msg 121 53 set \$1;
#X msg 223 54 set \$1;
#X msg 661 55 set \$1;
#X msg 755 56 set \$1;
#X obj 826 35 loadbang;
#X msg 826 60 1;
#X msg 860 62 2;
#X msg 334 53 set \$1;
#X msg 481 53 set \$1;
#X obj 25 29 r \$1-lvl;
#X obj 121 28 r \$1-pan;
#X obj 223 29 r \$1-mono;
#X obj 334 28 r \$1-fifo-size;
#X obj 481 28 r \$1-connected;
#X obj 481 78 s \$1-connected-set;
#X obj 334 78 s \$1-fifo-size-set;
#X obj 223 79 s \$1-mono-set;
#X obj 121 78 s \$1-pan-set;
#X obj 25 79 s \$1-lvl-set;
#X obj 661 30 r \$1-ch1;
#X obj 755 31 r \$1-ch2;
#X obj 661 104 s \$1-ch1-set;
#X obj 755 105 s \$1-ch2-set;
#X connect 0 0 19 0;
#X connect 1 0 18 0;
#X connect 2 0 17 0;
#X connect 3 0 22 0;
#X connect 4 0 23 0;
#X connect 5 0 6 0;
#X connect 5 0 7 0;
#X connect 6 0 22 0;
#X connect 7 0 23 0;
#X connect 8 0 16 0;
#X connect 9 0 15 0;
#X connect 10 0 0 0;
#X connect 11 0 1 0;
#X connect 12 0 2 0;
#X connect 13 0 8 0;
#X connect 14 0 9 0;
#X connect 20 0 3 0;
#X connect 21 0 4 0;
#X restore 656 94 pd more-setctl;
#N canvas 439 80 668 550 to-quacktrip 1;
#X obj 20 512 outlet;
#X obj 147 363 sel 1 0;
#X msg 153 435 off;
#X msg 309 476 nbuf \$1;
#X msg 34 432 client \$2 \$3;
#X obj 37 400 pack 0 s 0;
#X obj 240 363 loadbang;
#X obj 156 258 t b f;
#X msg 239 389 block 64 \, nchan 0 \, repeat 0;
#X obj 71 159 r \$2-server;
#X obj 124 188 r \$2-port;
#X obj 155 225 r \$2-this-caller;
#X obj 147 21 r \$2-onoff;
#X floatatom 310 284 5 0 0 0 - - -;
#X obj 123 295 expr $f1 + 10*\$1 + $f2;
#X obj 309 447 r \$1-fifo-size;
#X obj 147 92 spigot;
#X obj 199 67 r \$1-enable;
#X obj 393 59 r \$1-enable;
#X obj 433 114 r \$2-onoff;
#X obj 401 161 f;
#X obj 401 187 sel 0 1;
#X obj 420 237 t b b;
#X obj 560 340 s \$1-switch;
#X obj 393 85 sel;
#X msg 465 267 0;
#X obj 389 269 del 10;
#X connect 1 0 5 0;
#X connect 1 1 2 0;
#X connect 2 0 0 0;
#X connect 3 0 0 0;
#X connect 4 0 0 0;
#X connect 5 0 4 0;
#X connect 6 0 8 0;
#X connect 7 0 14 0;
#X connect 7 1 14 1;
#X connect 8 0 0 0;
#X connect 9 0 5 1;
#X connect 10 0 14 0;
#X connect 11 0 7 0;
#X connect 12 0 16 0;
#X connect 14 0 5 2;
#X connect 14 0 13 0;
#X connect 15 0 3 0;
#X connect 16 0 1 0;
#X connect 17 0 16 1;
#X connect 18 0 24 0;
#X connect 19 0 20 1;
#X connect 20 0 21 0;
#X connect 21 0 5 0;
#X connect 21 1 22 0;
#X connect 22 0 26 0;
#X connect 22 1 25 0;
#X connect 24 0 20 0;
#X connect 24 1 23 0;
#X connect 25 0 23 0;
#X connect 26 0 2 0;
#X restore 500 234 pd to-quacktrip;
#X obj 386 310 quacktrip~;
#X obj 474 428 change;
#X obj 481 89 loadbang;
#X obj 458 91 bng 15 250 50 0 empty empty empty 17 7 0 10 -262144 -1
-1;
#X obj 741 414 b;
#X obj 744 484 f;
#X obj 776 485 + 1;
#X msg 691 414 0;
#X obj 651 457 b;
#X obj 651 482 f;
#X obj 679 483 + 1;
#X obj 651 511 speedlim 100;
#X obj 1039 370 print quack-panel-\$1;
#X obj 890 451 sel 0;
#X obj 890 476 0;
#X obj 627 423 route 0;
#X obj 474 505 line~;
#X obj 434 583 rpole~;
#X obj 474 453 sel 1 0;
#X obj 434 547 *~;
#X obj 474 530 *~ -1;
#X obj 474 554 +~ 1;
#X obj 474 478 1 5;
#X obj 503 478 0.0005;
#X obj 385 583 rpole~;
#X obj 385 546 *~;
#X obj 558 569 unpack 0 0 0 0 0;
#X obj 45 570 route server call-name on-off block nchan 2x;
#X obj 539 346 route got-packet drop late miss request-call no-peer-yet
running bw, f 68;
#X obj 1018 429 unpack;
#X floatatom 429 119 5 0 0 0 - - -;
#X obj 44 545 r receiver-\$2-\$1;
#X obj 699 304 r \$1-reset;
#X obj 1059 474 s \$1-local-mbits-set;
#X obj 1018 514 s \$1-remote-mbits-set;
#X obj 890 501 s \$1-fill-set;
#X obj 801 423 s \$1-server-answered;
#X obj 899 399 s \$1-connected-set;
#X obj 780 392 s \$1-calling;
#X obj 744 511 s \$1-dropouts-set;
#X obj 651 538 s \$1-packets-in-set;
#X obj 654 603 s \$1-remote-blk-set;
#X obj 638 634 s \$1-remote-ch-set;
#X obj 604 670 s \$1-remote-sr-set;
#X obj 564 691 s \$1-nfill-set;
#X obj 415 89 f \$1;
#X obj 147 613 s \$0-onoff;
#X obj 385 693 outlet~;
#X obj 470 696 outlet~;
#X obj 385 614 audio.out \$1;
#X obj 485 633 fd_switch;
#X obj 508 661 switch~;
#X obj 385 660 *~;
#X obj 468 661 *~;
#X obj 484 610 r \$1-switch;
#X obj 180 64 r enable-all;
#X obj 180 90 s \$1-enable-set;
#X msg 415 145 \; \$1-fifo-size 50 \;;
#X connect 2 0 3 2;
#X connect 3 0 28 0;
#X connect 3 1 22 0;
#X connect 3 2 31 0;
#X connect 4 0 21 0;
#X connect 5 0 6 0;
#X connect 6 0 48 0;
#X connect 7 0 8 0;
#X connect 8 0 9 0;
#X connect 8 0 42 0;
#X connect 9 0 8 1;
#X connect 10 0 12 0;
#X connect 10 0 8 0;
#X connect 11 0 12 0;
#X connect 12 0 13 0;
#X connect 12 0 14 0;
#X connect 13 0 12 1;
#X connect 14 0 43 0;
#X connect 16 0 17 0;
#X connect 17 0 38 0;
#X connect 18 1 11 0;
#X connect 19 0 23 0;
#X connect 19 0 22 1;
#X connect 19 0 28 1;
#X connect 20 0 52 1;
#X connect 21 0 25 0;
#X connect 21 1 26 0;
#X connect 22 0 20 0;
#X connect 23 0 24 0;
#X connect 24 0 20 1;
#X connect 24 0 27 1;
#X connect 25 0 19 0;
#X connect 26 0 19 0;
#X connect 27 0 52 0;
#X connect 28 0 27 0;
#X connect 29 0 4 0;
#X connect 29 1 47 0;
#X connect 29 2 46 0;
#X connect 29 3 45 0;
#X connect 29 4 44 0;
#X connect 30 2 49 0;
#X connect 31 0 18 0;
#X connect 31 0 29 0;
#X connect 31 1 7 0;
#X connect 31 2 7 0;
#X connect 31 3 7 0;
#X connect 31 4 41 0;
#X connect 31 5 39 0;
#X connect 31 6 16 0;
#X connect 31 6 40 0;
#X connect 31 7 32 0;
#X connect 31 8 15 0;
#X connect 32 0 37 0;
#X connect 32 1 36 0;
#X connect 34 0 30 0;
#X connect 35 0 10 0;
#X connect 48 0 60 0;
#X connect 48 0 33 0;
#X connect 52 0 55 0;
#X connect 52 1 56 0;
#X connect 53 0 56 1;
#X connect 53 0 55 1;
#X connect 53 1 54 0;
#X connect 55 0 50 0;
#X connect 56 0 51 0;
#X connect 57 0 53 0;
#X connect 58 0 59 0;
