#N canvas 310 16 954 756 12;
#X obj 734 507 t b;
#X obj 734 454 f;
#X obj 734 532 f;
#X msg 848 531 0;
#X obj 734 484 moses 1;
#X obj 848 503 t b f;
#X obj 814 464 moses 1;
#X obj 144 163 inlet~;
#X msg 662 291 \; pd dsp 1;
#X obj 324 313 line~;
#X obj 274 358 *~;
#X obj 143 202 hip~ 3;
#X obj 665 182 f;
#X obj 324 273 pack 0 30, f 5;
#X obj 325 64 f;
#X obj 325 89 - 5;
#X obj 325 114 * 0.25;
#X obj 665 207 max 0;
#X obj 325 165 expr 1.5*$f1-0.5*($f1*$f1*$f1);
#X obj 325 139 clip -1 1;
#X obj 506 201 expr 0.5*($f1+1);
#X obj 324 218 expr 0.5*(1-$f1);
#X obj 716 94 loadbang;
#X obj 382 338 line~;
#X obj 320 357 *~;
#X obj 382 298 pack 0 30, f 5;
#X text 754 395 MUTE logic;
#X obj 444 354 line~;
#X obj 444 314 pack 0 30, f 5;
#X obj 275 387 *~;
#X obj 325 190 t f f;
#X obj 185 619 rmstodb;
#X obj 185 644 moses 1;
#X msg 186 679 -100;
#X obj 233 674 - 88;
#X msg 678 96 5;
#X obj 196 161 inlet~;
#X obj 195 200 hip~ 3;
#X obj 320 389 *~;
#X obj 342 617 rmstodb;
#X obj 342 642 moses 1;
#X msg 343 677 -100;
#X obj 390 672 - 88;
#X obj 663 235 expr pow($f1*0.02 \, 4);
#X obj 199 251 -~;
#X obj 236 271 * 0.5;
#X obj 199 276 *~ 0;
#X obj 139 310 -~;
#X obj 186 308 +~;
#X floatatom 407 402 5 0 0 0 - - -;
#X floatatom 463 400 5 0 0 0 - - -;
#X obj 325 245 expr $f1 + 0.25*($f1*$f2);
#X obj 381 271 expr $f2 + 0.25*($f1*$f2);
#X obj 325 39 r \$1-pan;
#X obj 678 71 r \$1-ctr-pan;
#X obj 678 120 s \$1-pan;
#X obj 666 155 r \$1-lvl;
#X obj 734 427 r \$1-mute;
#X obj 813 435 r \$1-lvl;
#X obj 734 558 s \$1-lvl;
#X obj 184 715 s \$1-vu1;
#X obj 341 713 s \$1-vu2;
#X obj 236 246 r \$1-mono;
#X msg 444 477 set \$1;
#X msg 507 478 set \$1;
#X obj 444 452 r \$1-ch1;
#X obj 507 453 r \$1-ch2;
#X obj 223 522 outlet~;
#X obj 380 518 outlet~;
#X obj 347 586 env~ 4096;
#X obj 183 578 env~ 4096;
#X connect 0 0 2 0;
#X connect 1 0 4 0;
#X connect 2 0 59 0;
#X connect 3 0 59 0;
#X connect 4 0 0 0;
#X connect 4 1 5 0;
#X connect 5 0 3 0;
#X connect 6 1 2 1;
#X connect 7 0 11 0;
#X connect 9 0 10 1;
#X connect 10 0 29 0;
#X connect 11 0 47 0;
#X connect 11 0 44 0;
#X connect 12 0 17 0;
#X connect 13 0 9 0;
#X connect 14 0 15 0;
#X connect 15 0 16 0;
#X connect 16 0 19 0;
#X connect 17 0 43 0;
#X connect 18 0 30 0;
#X connect 19 0 18 0;
#X connect 19 0 8 0;
#X connect 20 0 51 1;
#X connect 20 0 52 1;
#X connect 21 0 51 0;
#X connect 21 0 52 0;
#X connect 22 0 35 0;
#X connect 23 0 24 1;
#X connect 24 0 38 0;
#X connect 25 0 23 0;
#X connect 27 0 29 1;
#X connect 27 0 38 1;
#X connect 28 0 27 0;
#X connect 29 0 67 0;
#X connect 29 0 70 0;
#X connect 30 0 21 0;
#X connect 30 1 20 0;
#X connect 31 0 32 0;
#X connect 32 0 33 0;
#X connect 32 1 34 0;
#X connect 33 0 60 0;
#X connect 34 0 60 0;
#X connect 35 0 55 0;
#X connect 36 0 37 0;
#X connect 37 0 48 0;
#X connect 37 0 44 1;
#X connect 38 0 68 0;
#X connect 38 0 69 0;
#X connect 39 0 40 0;
#X connect 40 0 41 0;
#X connect 40 1 42 0;
#X connect 41 0 61 0;
#X connect 42 0 61 0;
#X connect 43 0 28 0;
#X connect 43 0 8 0;
#X connect 44 0 46 0;
#X connect 45 0 46 1;
#X connect 46 0 48 1;
#X connect 46 0 47 1;
#X connect 47 0 10 0;
#X connect 48 0 24 0;
#X connect 51 0 13 0;
#X connect 51 0 49 0;
#X connect 52 0 25 0;
#X connect 52 0 50 0;
#X connect 53 0 14 0;
#X connect 54 0 35 0;
#X connect 56 0 12 0;
#X connect 57 0 1 0;
#X connect 58 0 1 1;
#X connect 58 0 6 0;
#X connect 62 0 45 0;
#X connect 65 0 63 0;
#X connect 66 0 64 0;
#X connect 69 0 39 0;
#X connect 70 0 31 0;
