#N canvas 0 40 1258 626 10;
#X obj 547 576 s \$0-port;
#X obj 388 576 s \$0-on-off;
#X obj 465 555 loadbang;
#X msg 505 576 10000;
#X floatatom 547 554 6 0 0 0 - - -;
#X obj 388 556 tgl 15 0 empty empty empty 17 7 0 10 -262144 -1 -1 1
1;
#X obj 5 29 netty-server-in \$0 1;
#X obj 5 95 netty-server-out \$0 1 1;
#X obj 157 30 netty-server-in \$0 2;
#X obj 157 95 netty-server-out \$0 2 1;
#X obj 5 151 netty-server-out \$0 1 2;
#X obj 157 151 netty-server-out \$0 2 2;
#X text 48 6 from 1;
#X text 205 8 from 2;
#X obj 309 29 netty-server-in \$0 3;
#X obj 309 95 netty-server-out \$0 3 1;
#X obj 309 151 netty-server-out \$0 3 2;
#X obj 461 30 netty-server-in \$0 4;
#X obj 461 95 netty-server-out \$0 4 1;
#X obj 461 151 netty-server-out \$0 4 2;
#X obj 5 208 netty-server-out \$0 1 3;
#X obj 5 265 netty-server-out \$0 1 4;
#X obj 157 208 netty-server-out \$0 2 3;
#X obj 157 265 netty-server-out \$0 2 4;
#X obj 309 208 netty-server-out \$0 3 3;
#X obj 309 265 netty-server-out \$0 3 4;
#X obj 461 208 netty-server-out \$0 4 3;
#X obj 461 265 netty-server-out \$0 4 4;
#X obj 465 576 t b b;
#X text 352 7 from 3;
#X text 500 5 from 4;
#X obj 5 321 netty-server-out \$0 1 5;
#X obj 5 378 netty-server-out \$0 1 6;
#X obj 5 435 netty-server-out \$0 1 7;
#X obj 5 491 netty-server-out \$0 1 8;
#X obj 157 321 netty-server-out \$0 2 5;
#X obj 157 378 netty-server-out \$0 2 6;
#X obj 157 435 netty-server-out \$0 2 7;
#X obj 157 491 netty-server-out \$0 2 8;
#X obj 309 321 netty-server-out \$0 3 5;
#X obj 309 378 netty-server-out \$0 3 6;
#X obj 309 435 netty-server-out \$0 3 7;
#X obj 309 491 netty-server-out \$0 3 8;
#X obj 461 321 netty-server-out \$0 4 5;
#X obj 461 378 netty-server-out \$0 4 6;
#X obj 461 435 netty-server-out \$0 4 7;
#X obj 461 491 netty-server-out \$0 4 8;
#X text 656 6 from 5;
#X text 815 8 from 6;
#X text 960 7 from 7;
#X text 1108 5 from 8;
#X text 1220 113 to 1;
#X text 1220 168 to 2;
#X text 1220 223 etc;
#X obj 613 95 netty-server-out \$0 5 1;
#X obj 613 151 netty-server-out \$0 5 2;
#X obj 613 208 netty-server-out \$0 5 3;
#X obj 613 265 netty-server-out \$0 5 4;
#X obj 613 321 netty-server-out \$0 5 5;
#X obj 613 378 netty-server-out \$0 5 6;
#X obj 613 435 netty-server-out \$0 5 7;
#X obj 613 491 netty-server-out \$0 5 8;
#X obj 765 95 netty-server-out \$0 6 1;
#X obj 765 151 netty-server-out \$0 6 2;
#X obj 765 208 netty-server-out \$0 6 3;
#X obj 765 265 netty-server-out \$0 6 4;
#X obj 765 321 netty-server-out \$0 6 5;
#X obj 765 378 netty-server-out \$0 6 6;
#X obj 765 435 netty-server-out \$0 6 7;
#X obj 765 491 netty-server-out \$0 6 8;
#X obj 917 95 netty-server-out \$0 7 1;
#X obj 917 151 netty-server-out \$0 7 2;
#X obj 917 208 netty-server-out \$0 7 3;
#X obj 917 265 netty-server-out \$0 7 4;
#X obj 917 321 netty-server-out \$0 7 5;
#X obj 917 378 netty-server-out \$0 7 6;
#X obj 917 435 netty-server-out \$0 7 7;
#X obj 917 491 netty-server-out \$0 7 8;
#X obj 1069 95 netty-server-out \$0 8 1;
#X obj 1069 151 netty-server-out \$0 8 2;
#X obj 1069 208 netty-server-out \$0 8 3;
#X obj 1069 265 netty-server-out \$0 8 4;
#X obj 1069 321 netty-server-out \$0 8 5;
#X obj 1069 378 netty-server-out \$0 8 6;
#X obj 1069 435 netty-server-out \$0 8 7;
#X obj 1069 491 netty-server-out \$0 8 8;
#X obj 613 29 netty-server-in \$0 5;
#X obj 765 30 netty-server-in \$0 6;
#X obj 917 29 netty-server-in \$0 7;
#X obj 1069 30 netty-server-in \$0 8;
#X obj 446 552 bng 15 250 50 0 empty empty empty 17 7 0 10 -262144
-1 -1;
#X connect 2 0 28 0;
#X connect 3 0 4 0;
#X connect 4 0 0 0;
#X connect 5 0 1 0;
#X connect 28 0 5 0;
#X connect 28 1 3 0;
#X connect 90 0 28 0;
