#N canvas 0 22 450 419 12;
#X obj 31 97 sel 0 1;
#X msg 239 220 1;
#X obj 202 184 t b b;
#X obj 68 320 line~;
#X obj 102 223 t b b;
#X msg 163 243 0;
#X obj 31 131 t b b;
#X msg 31 176 0;
#X obj 31 17 inlet;
#X obj 239 269 outlet switch;
#X obj 68 362 outlet~;
#X obj 31 73 change;
#X text 157 19 see fd_switch-help.pd;
#X obj 31 42 route float bang;
#X obj 102 254 del 1;
#X obj 102 279 pack 1 3;
#X obj 31 154 del 4;
#X obj 68 180 pack 0 3;
#X connect 0 0 6 0;
#X connect 0 1 2 0;
#X connect 1 0 9 0;
#X connect 2 0 4 0;
#X connect 2 1 1 0;
#X connect 3 0 10 0;
#X connect 4 0 14 0;
#X connect 4 1 5 0;
#X connect 5 0 3 0;
#X connect 6 0 16 0;
#X connect 6 1 17 0;
#X connect 7 0 9 0;
#X connect 8 0 13 0;
#X connect 11 0 0 0;
#X connect 13 0 11 0;
#X connect 13 1 9 0;
#X connect 14 0 15 0;
#X connect 15 0 3 0;
#X connect 16 0 7 0;
#X connect 17 0 3 0;
